
# Logs 20190712 

## İngilizce telafuzu için youtubedan mozjobrani videolarını indir ve kes 20190712 

ref: `~/projects/study/logbook/ingilizce_telafuzu_icin_mozjobrani_videolari_indir_kes_20190712.md`

## about time videosu dönüştürme 20190716 

``` bash
cd /Users/mertnuhoglu/Movies/about_time/
cp about_time.srt about_time0.txt
cp about_time0.txt marks.txt
``` 

Ses kanallarını incele

``` bash
ffprobe -i about_time.mp4
  ##>     Stream #0:1(eng): Audio: aac (mp4a / 0x6134706D), 48000 Hz, 5.1, fltp, 117 kb/s (default)
ffprobe -i clips/silence.mp4
  ##>     Stream #0:0(und): Audio: aac (mp4a / 0x6134706D), 48000 Hz, 5.1, fltp, 9 kb/s (default)
``` 

``` r
offset_clip_id = 0
original_video = "about_time.mp4"
clip_name = "about_time"
``` 

``` bash
bash cmd.sh
VOLUME_INCREASE='-filter:a "volume=3.5"' 
CLIP_NAME="about_time_02"
CLIP_NAME="about_time_03"
CLIP_NAME="about_time_04"
MERGE_FILE="clips/video_files02.in"
MERGE_FILE="clips/video_files03.in"
MERGE_FILE="clips/video_files04.in"
ffmpeg -f concat -i ${MERGE_FILE} \
	-c:v libx264 -crf 28 -vf "scale=320:240" \
	-c:a libfaac -q:a 32 "${VOLUME_INCREASE}" \
	clips/${CLIP_NAME}_silence.mp4
``` 

## moz jobrani klipleri videolarını dönüştürme 20190717 

``` bash
cd "/Users/mertnuhoglu/Movies/mozjobrani/PARENTING - Maz Jobrani/"
mkdir -p 1
mv 1-* 1
cd 1
input="1-Jesus Put my Baby to Sleep.mp4"
cp 1-*.srt marks.txt
mkdir -p 2
mv 2-* 2
cd 2
cp 2-*.srt marks.txt
input="2-Kids are Exhausting.mp4"
mkdir -p 3
mv 3-* 3
cd 3
cp 3-*.srt marks.txt
input="3-Kids Ruin You!.mp4"
``` 

``` bash
mkdir -p clips
ffprobe -i ${input}
  ##>     Stream #0:1(eng): Audio: aac (mp4a / 0x6134706D), 44100 Hz, stereo, fltp, 125 kb/s (default)
SAMPLE_RATE=44100
CHANNEL_LAYOUT=stereo
ffmpeg -f lavfi -i anullsrc=channel_layout=${CHANNEL_LAYOUT}:sample_rate=${SAMPLE_RATE} -t 3 clips/silence.ac3
ffmpeg -i img001.jpg -i clips/silence.ac3 -acodec libfaac -vcodec libx264 clips/silence.mp4
``` 

Test

``` bash
ffmpeg -f concat -i video_files_test.in -c:v libx264 -crf 28 -vf "scale=320:240" -c:a libfaac -q:a 32 test.mp4
``` 

``` r
offset_clip_id = 0
input = "1-Jesus Put my Baby to Sleep.mp4"
input="2-Kids are Exhausting.mp4"
input="3-Kids Ruin You!.mp4"
clip_name = "01"
clip_name = "02"
clip_name = "03"
one.video.to.multiple.clips::main_generate_ffmpeg_cmd_for_splitting_videos("marks.tsv", offset_clip_id = offset_clip_id, original_video = input, clip_name = clip_name)
``` 

``` bash
bash cmd.sh
VOLUME_INCREASE='-filter:a "volume=1"' 
CLIP_NAME="01"
CLIP_NAME="02"
CLIP_NAME="03"
MERGE_FILE="clips/video_files_merge.in"
ffmpeg -f concat -i ${MERGE_FILE} \
	-c:v libx264 -crf 28 -vf "scale=320:240" \
	-c:a libfaac -q:a 32 "${VOLUME_INCREASE}" \
	clips/${CLIP_NAME}_silence.mp4
  ##> ffmpeg -f concat -i clips/video_files_merge.in -c:v libx264 -crf 28 -vf scale=320:240 -c:a libfaac -q:a 32 -filter:a "volume=1" clips/03_silence.mp4
``` 

## spotlight

01: compress video

ref: `~/projects/study/logbook/ffmpeg_video_compression_20190711.md`

``` bash
input=Spotlight\ 2015\ 1080p\ DUAL.mkv
output=spotlight.mp4
ffprobe -i ${input} 2>&1 | rg eng | rg Stream | rg Audio
  ##>     Stream #0:2(eng): Audio: dts (DTS), 48000 Hz, 5.1(side), fltp, 1536 kb/s
stream=2
VOLUME_INCREASE=2
SAMPLE_RATE=48000
CHANNEL_LAYOUT=5.1
``` 

``` bash
export input=About\ Time\ -\ Zamanda\ Aşk\ 2013\ 1080p\ DUAL.mkv
export output=about_time
export VOLUME_INCREASE=3.5
export stream=2
``` 

``` bash
ffmpeg -ss 01:30:40.436 -i "${input}" -to 01:30:42.355 -map 0:0 -map 0:${stream} -c:v libx264 -crf 28 -vf "scale=320:240" -c:a libfaac -q:a 32 -filter:a "volume=${VOLUME_INCREASE}" -copyts clips/${output}_1520d.mp4
``` 

https://trac.ffmpeg.org/wiki/Seeking

